<mxfile host="app.diagrams.net" agent="Mozilla/5.0 (Windows NT 10.0; Win64; x64) AppleWebKit/537.36 (KHTML, like Gecko) Chrome/125.0.0.0 Safari/537.36" version="24.7.6">
  <diagram id="C5RBs43oDa-KdzZeNtuy" name="Page-1">
    <mxGraphModel dx="1090" dy="679" grid="1" gridSize="10" guides="1" tooltips="1" connect="1" arrows="1" fold="1" page="1" pageScale="1" pageWidth="827" pageHeight="1169" math="0" shadow="0">
      <root>
        <mxCell id="WIyWlLk6GJQsqaUBKTNV-0" />
        <mxCell id="WIyWlLk6GJQsqaUBKTNV-1" parent="WIyWlLk6GJQsqaUBKTNV-0" />
        <mxCell id="XWS5cyPxn0b6OnyD6pv9-0" value="InterestRateSwaption" style="swimlane;fontStyle=3;align=center;verticalAlign=top;childLayout=stackLayout;horizontal=1;startSize=26;horizontalStack=0;resizeParent=1;resizeLast=0;collapsible=1;marginBottom=0;rounded=0;shadow=0;strokeWidth=1;fillColor=#dae8fc;strokeColor=#6c8ebf;gradientColor=#7ea6e0;" parent="WIyWlLk6GJQsqaUBKTNV-1" vertex="1">
          <mxGeometry x="220" y="140" width="170" height="390" as="geometry">
            <mxRectangle x="220" y="120" width="160" height="26" as="alternateBounds" />
          </mxGeometry>
        </mxCell>
        <mxCell id="XWS5cyPxn0b6OnyD6pv9-1" value="__init__" style="text;align=center;verticalAlign=top;spacingLeft=4;spacingRight=4;overflow=hidden;rotatable=0;points=[[0,0.5],[1,0.5]];portConstraint=eastwest;fontFamily=Lucida Console;fontStyle=1" parent="XWS5cyPxn0b6OnyD6pv9-0" vertex="1">
          <mxGeometry y="26" width="170" height="26" as="geometry" />
        </mxCell>
        <mxCell id="XWS5cyPxn0b6OnyD6pv9-2" value="self.irs" style="text;align=left;verticalAlign=top;spacingLeft=4;spacingRight=4;overflow=hidden;rotatable=0;points=[[0,0.5],[1,0.5]];portConstraint=eastwest;fontFamily=Lucida Console;fontStyle=1" parent="XWS5cyPxn0b6OnyD6pv9-0" vertex="1">
          <mxGeometry y="52" width="170" height="26" as="geometry" />
        </mxCell>
        <mxCell id="XWS5cyPxn0b6OnyD6pv9-3" value="self.exercise_date" style="text;align=left;verticalAlign=top;spacingLeft=4;spacingRight=4;overflow=hidden;rotatable=0;points=[[0,0.5],[1,0.5]];portConstraint=eastwest;rounded=0;shadow=0;html=0;fontStyle=1;fontFamily=Lucida Console;" parent="XWS5cyPxn0b6OnyD6pv9-0" vertex="1">
          <mxGeometry y="78" width="170" height="30" as="geometry" />
        </mxCell>
        <mxCell id="XWS5cyPxn0b6OnyD6pv9-4" value="self.sigma" style="text;align=left;verticalAlign=top;spacingLeft=4;spacingRight=4;overflow=hidden;rotatable=0;points=[[0,0.5],[1,0.5]];portConstraint=eastwest;rounded=0;shadow=0;html=0;fontStyle=1;fontFamily=Lucida Console;" parent="XWS5cyPxn0b6OnyD6pv9-0" vertex="1">
          <mxGeometry y="108" width="170" height="20" as="geometry" />
        </mxCell>
        <mxCell id="XWS5cyPxn0b6OnyD6pv9-6" value="" style="line;html=1;strokeWidth=1;align=left;verticalAlign=middle;spacingTop=-1;spacingLeft=3;spacingRight=3;rotatable=0;labelPosition=right;points=[];portConstraint=eastwest;" parent="XWS5cyPxn0b6OnyD6pv9-0" vertex="1">
          <mxGeometry y="128" width="170" height="16" as="geometry" />
        </mxCell>
        <mxCell id="XWS5cyPxn0b6OnyD6pv9-8" value="&lt;b&gt;&lt;font face=&quot;Lucida Console&quot;&gt;npv_Black&lt;br&gt;&lt;/font&gt;&lt;/b&gt;&lt;br&gt;calculate the NPV&lt;br&gt;using Black Formula" style="shape=ext;margin=3;double=1;whiteSpace=wrap;html=1;align=center;" parent="XWS5cyPxn0b6OnyD6pv9-0" vertex="1">
          <mxGeometry y="144" width="170" height="90" as="geometry" />
        </mxCell>
        <mxCell id="XWS5cyPxn0b6OnyD6pv9-9" value="&lt;b&gt;&lt;font face=&quot;Lucida Console&quot;&gt;npv_MC&lt;br&gt;&lt;/font&gt;&lt;/b&gt;&lt;br&gt;calculate the NPV and its&lt;br&gt;confidence level&lt;br&gt;using MC simulations" style="shape=ext;margin=3;double=1;whiteSpace=wrap;html=1;align=center;" parent="XWS5cyPxn0b6OnyD6pv9-0" vertex="1">
          <mxGeometry y="234" width="170" height="156" as="geometry" />
        </mxCell>
        <mxCell id="CFxCFWsyVbdKsb3_6l-5-6" style="edgeStyle=orthogonalEdgeStyle;rounded=0;orthogonalLoop=1;jettySize=auto;html=1;entryX=1;entryY=0.5;entryDx=0;entryDy=0;" edge="1" parent="WIyWlLk6GJQsqaUBKTNV-1" source="XWS5cyPxn0b6OnyD6pv9-10" target="XWS5cyPxn0b6OnyD6pv9-29">
          <mxGeometry relative="1" as="geometry" />
        </mxCell>
        <mxCell id="XWS5cyPxn0b6OnyD6pv9-10" value="maturity" style="swimlane;fontStyle=0;align=center;verticalAlign=top;childLayout=stackLayout;horizontal=1;startSize=26;horizontalStack=0;resizeParent=1;resizeLast=0;collapsible=1;marginBottom=0;rounded=0;shadow=0;strokeWidth=1;fillColor=#fff2cc;gradientColor=#ffd966;strokeColor=#d6b656;" parent="WIyWlLk6GJQsqaUBKTNV-1" vertex="1">
          <mxGeometry x="566" y="108" width="100" height="52" as="geometry">
            <mxRectangle x="550" y="140" width="160" height="26" as="alternateBounds" />
          </mxGeometry>
        </mxCell>
        <mxCell id="XWS5cyPxn0b6OnyD6pv9-11" value="5y" style="text;align=center;verticalAlign=top;spacingLeft=4;spacingRight=4;overflow=hidden;rotatable=0;points=[[0,0.5],[1,0.5]];portConstraint=eastwest;" parent="XWS5cyPxn0b6OnyD6pv9-10" vertex="1">
          <mxGeometry y="26" width="100" height="26" as="geometry" />
        </mxCell>
        <mxCell id="CFxCFWsyVbdKsb3_6l-5-7" style="edgeStyle=orthogonalEdgeStyle;rounded=0;orthogonalLoop=1;jettySize=auto;html=1;entryX=1;entryY=0.5;entryDx=0;entryDy=0;" edge="1" parent="WIyWlLk6GJQsqaUBKTNV-1" source="XWS5cyPxn0b6OnyD6pv9-13" target="XWS5cyPxn0b6OnyD6pv9-47">
          <mxGeometry relative="1" as="geometry" />
        </mxCell>
        <mxCell id="XWS5cyPxn0b6OnyD6pv9-13" value="Side" style="swimlane;fontStyle=0;align=center;verticalAlign=top;childLayout=stackLayout;horizontal=1;startSize=26;horizontalStack=0;resizeParent=1;resizeLast=0;collapsible=1;marginBottom=0;rounded=0;shadow=0;strokeWidth=1;fillColor=#fff2cc;gradientColor=#ffd966;strokeColor=#d6b656;" parent="WIyWlLk6GJQsqaUBKTNV-1" vertex="1">
          <mxGeometry x="566" y="180" width="100" height="52" as="geometry">
            <mxRectangle x="550" y="140" width="160" height="26" as="alternateBounds" />
          </mxGeometry>
        </mxCell>
        <mxCell id="XWS5cyPxn0b6OnyD6pv9-14" value="Payer / Receiver" style="text;align=center;verticalAlign=top;spacingLeft=4;spacingRight=4;overflow=hidden;rotatable=0;points=[[0,0.5],[1,0.5]];portConstraint=eastwest;" parent="XWS5cyPxn0b6OnyD6pv9-13" vertex="1">
          <mxGeometry y="26" width="100" height="26" as="geometry" />
        </mxCell>
        <mxCell id="CFxCFWsyVbdKsb3_6l-5-5" style="edgeStyle=orthogonalEdgeStyle;rounded=0;orthogonalLoop=1;jettySize=auto;html=1;entryX=1;entryY=0.5;entryDx=0;entryDy=0;" edge="1" parent="WIyWlLk6GJQsqaUBKTNV-1" source="XWS5cyPxn0b6OnyD6pv9-15" target="XWS5cyPxn0b6OnyD6pv9-26">
          <mxGeometry relative="1" as="geometry" />
        </mxCell>
        <mxCell id="XWS5cyPxn0b6OnyD6pv9-15" value="start_date" style="swimlane;fontStyle=0;align=center;verticalAlign=top;childLayout=stackLayout;horizontal=1;startSize=26;horizontalStack=0;resizeParent=1;resizeLast=0;collapsible=1;marginBottom=0;rounded=0;shadow=0;strokeWidth=1;fillColor=#fff2cc;gradientColor=#ffd966;strokeColor=#d6b656;" parent="WIyWlLk6GJQsqaUBKTNV-1" vertex="1">
          <mxGeometry x="566" y="40" width="100" height="52" as="geometry">
            <mxRectangle x="550" y="140" width="160" height="26" as="alternateBounds" />
          </mxGeometry>
        </mxCell>
        <mxCell id="XWS5cyPxn0b6OnyD6pv9-16" value="2024-01-01" style="text;align=center;verticalAlign=top;spacingLeft=4;spacingRight=4;overflow=hidden;rotatable=0;points=[[0,0.5],[1,0.5]];portConstraint=eastwest;" parent="XWS5cyPxn0b6OnyD6pv9-15" vertex="1">
          <mxGeometry y="26" width="100" height="26" as="geometry" />
        </mxCell>
        <mxCell id="XWS5cyPxn0b6OnyD6pv9-74" style="edgeStyle=orthogonalEdgeStyle;rounded=0;orthogonalLoop=1;jettySize=auto;html=1;entryX=0;entryY=0.5;entryDx=0;entryDy=0;fillColor=#0050ef;strokeColor=#001DBC;" parent="WIyWlLk6GJQsqaUBKTNV-1" source="XWS5cyPxn0b6OnyD6pv9-20" target="XWS5cyPxn0b6OnyD6pv9-8" edge="1">
          <mxGeometry relative="1" as="geometry">
            <Array as="points">
              <mxPoint x="170" y="399" />
              <mxPoint x="170" y="330" />
            </Array>
          </mxGeometry>
        </mxCell>
        <mxCell id="CFxCFWsyVbdKsb3_6l-5-21" style="edgeStyle=orthogonalEdgeStyle;rounded=0;orthogonalLoop=1;jettySize=auto;html=1;entryX=0;entryY=0.5;entryDx=0;entryDy=0;fillColor=#0050ef;strokeColor=#001DBC;" edge="1" parent="WIyWlLk6GJQsqaUBKTNV-1" source="XWS5cyPxn0b6OnyD6pv9-20" target="XWS5cyPxn0b6OnyD6pv9-9">
          <mxGeometry relative="1" as="geometry">
            <Array as="points">
              <mxPoint x="170" y="399" />
              <mxPoint x="170" y="452" />
            </Array>
          </mxGeometry>
        </mxCell>
        <mxCell id="XWS5cyPxn0b6OnyD6pv9-20" value="DiscountCurve" style="swimlane;fontStyle=0;align=center;verticalAlign=top;childLayout=stackLayout;horizontal=1;startSize=26;horizontalStack=0;resizeParent=1;resizeLast=0;collapsible=1;marginBottom=0;rounded=0;shadow=0;strokeWidth=1;fillColor=#0050ef;strokeColor=#001DBC;fontColor=#ffffff;" parent="WIyWlLk6GJQsqaUBKTNV-1" vertex="1">
          <mxGeometry x="20" y="373" width="130" height="52" as="geometry">
            <mxRectangle x="550" y="140" width="160" height="26" as="alternateBounds" />
          </mxGeometry>
        </mxCell>
        <mxCell id="XWS5cyPxn0b6OnyD6pv9-21" value="..." style="text;align=center;verticalAlign=top;spacingLeft=4;spacingRight=4;overflow=hidden;rotatable=0;points=[[0,0.5],[1,0.5]];portConstraint=eastwest;" parent="XWS5cyPxn0b6OnyD6pv9-20" vertex="1">
          <mxGeometry y="26" width="130" height="26" as="geometry" />
        </mxCell>
        <mxCell id="CFxCFWsyVbdKsb3_6l-5-4" style="edgeStyle=orthogonalEdgeStyle;rounded=0;orthogonalLoop=1;jettySize=auto;html=1;entryX=1;entryY=0.5;entryDx=0;entryDy=0;" edge="1" parent="WIyWlLk6GJQsqaUBKTNV-1" source="XWS5cyPxn0b6OnyD6pv9-26" target="XWS5cyPxn0b6OnyD6pv9-2">
          <mxGeometry relative="1" as="geometry">
            <Array as="points">
              <mxPoint x="410" y="66" />
              <mxPoint x="410" y="205" />
            </Array>
          </mxGeometry>
        </mxCell>
        <mxCell id="XWS5cyPxn0b6OnyD6pv9-26" value="nominal" style="swimlane;fontStyle=0;align=center;verticalAlign=top;childLayout=stackLayout;horizontal=1;startSize=26;horizontalStack=0;resizeParent=1;resizeLast=0;collapsible=1;marginBottom=0;rounded=0;shadow=0;strokeWidth=1;fillColor=#fff2cc;gradientColor=#ffd966;strokeColor=#d6b656;" parent="WIyWlLk6GJQsqaUBKTNV-1" vertex="1">
          <mxGeometry x="430" y="40" width="100" height="52" as="geometry">
            <mxRectangle x="550" y="140" width="160" height="26" as="alternateBounds" />
          </mxGeometry>
        </mxCell>
        <mxCell id="XWS5cyPxn0b6OnyD6pv9-27" value="1000000" style="text;align=center;verticalAlign=top;spacingLeft=4;spacingRight=4;overflow=hidden;rotatable=0;points=[[0,0.5],[1,0.5]];portConstraint=eastwest;" parent="XWS5cyPxn0b6OnyD6pv9-26" vertex="1">
          <mxGeometry y="26" width="100" height="26" as="geometry" />
        </mxCell>
        <mxCell id="CFxCFWsyVbdKsb3_6l-5-3" style="edgeStyle=orthogonalEdgeStyle;rounded=0;orthogonalLoop=1;jettySize=auto;html=1;entryX=1;entryY=0.5;entryDx=0;entryDy=0;" edge="1" parent="WIyWlLk6GJQsqaUBKTNV-1" source="XWS5cyPxn0b6OnyD6pv9-29" target="XWS5cyPxn0b6OnyD6pv9-2">
          <mxGeometry relative="1" as="geometry">
            <Array as="points">
              <mxPoint x="410" y="134" />
              <mxPoint x="410" y="205" />
            </Array>
          </mxGeometry>
        </mxCell>
        <mxCell id="XWS5cyPxn0b6OnyD6pv9-29" value="rate" style="swimlane;fontStyle=0;align=center;verticalAlign=top;childLayout=stackLayout;horizontal=1;startSize=26;horizontalStack=0;resizeParent=1;resizeLast=0;collapsible=1;marginBottom=0;rounded=0;shadow=0;strokeWidth=1;fillColor=#fff2cc;gradientColor=#ffd966;strokeColor=#d6b656;" parent="WIyWlLk6GJQsqaUBKTNV-1" vertex="1">
          <mxGeometry x="430" y="108" width="100" height="52" as="geometry">
            <mxRectangle x="550" y="140" width="160" height="26" as="alternateBounds" />
          </mxGeometry>
        </mxCell>
        <mxCell id="XWS5cyPxn0b6OnyD6pv9-30" value="0.035" style="text;align=center;verticalAlign=top;spacingLeft=4;spacingRight=4;overflow=hidden;rotatable=0;points=[[0,0.5],[1,0.5]];portConstraint=eastwest;" parent="XWS5cyPxn0b6OnyD6pv9-29" vertex="1">
          <mxGeometry y="26" width="100" height="26" as="geometry" />
        </mxCell>
        <mxCell id="XWS5cyPxn0b6OnyD6pv9-37" value="NPV" style="ellipse;whiteSpace=wrap;html=1;align=center;fillColor=#d5e8d4;gradientColor=#97d077;strokeColor=#82b366;" parent="WIyWlLk6GJQsqaUBKTNV-1" vertex="1">
          <mxGeometry x="495" y="306" width="100" height="46" as="geometry" />
        </mxCell>
        <mxCell id="XWS5cyPxn0b6OnyD6pv9-39" value="NPV&lt;br&gt;confidence level" style="ellipse;whiteSpace=wrap;html=1;align=center;fillColor=#d5e8d4;gradientColor=#97d077;strokeColor=#82b366;" parent="WIyWlLk6GJQsqaUBKTNV-1" vertex="1">
          <mxGeometry x="480" y="421" width="130" height="61" as="geometry" />
        </mxCell>
        <mxCell id="CFxCFWsyVbdKsb3_6l-5-8" style="edgeStyle=orthogonalEdgeStyle;rounded=0;orthogonalLoop=1;jettySize=auto;html=1;" edge="1" parent="WIyWlLk6GJQsqaUBKTNV-1" source="XWS5cyPxn0b6OnyD6pv9-45" target="XWS5cyPxn0b6OnyD6pv9-2">
          <mxGeometry relative="1" as="geometry">
            <Array as="points">
              <mxPoint x="190" y="186" />
              <mxPoint x="190" y="205" />
            </Array>
          </mxGeometry>
        </mxCell>
        <mxCell id="CFxCFWsyVbdKsb3_6l-5-9" style="edgeStyle=orthogonalEdgeStyle;rounded=0;orthogonalLoop=1;jettySize=auto;html=1;entryX=0;entryY=0.5;entryDx=0;entryDy=0;" edge="1" parent="WIyWlLk6GJQsqaUBKTNV-1" source="XWS5cyPxn0b6OnyD6pv9-45" target="XWS5cyPxn0b6OnyD6pv9-3">
          <mxGeometry relative="1" as="geometry">
            <Array as="points">
              <mxPoint x="190" y="186" />
              <mxPoint x="190" y="233" />
            </Array>
          </mxGeometry>
        </mxCell>
        <mxCell id="XWS5cyPxn0b6OnyD6pv9-45" value="exercise_date" style="swimlane;fontStyle=0;align=center;verticalAlign=top;childLayout=stackLayout;horizontal=1;startSize=26;horizontalStack=0;resizeParent=1;resizeLast=0;collapsible=1;marginBottom=0;rounded=0;shadow=0;strokeWidth=1;fillColor=#fff2cc;gradientColor=#ffd966;strokeColor=#d6b656;" parent="WIyWlLk6GJQsqaUBKTNV-1" vertex="1">
          <mxGeometry x="65" y="160" width="100" height="52" as="geometry">
            <mxRectangle x="550" y="140" width="160" height="26" as="alternateBounds" />
          </mxGeometry>
        </mxCell>
        <mxCell id="XWS5cyPxn0b6OnyD6pv9-46" value="2024-07-01" style="text;align=center;verticalAlign=top;spacingLeft=4;spacingRight=4;overflow=hidden;rotatable=0;points=[[0,0.5],[1,0.5]];portConstraint=eastwest;" parent="XWS5cyPxn0b6OnyD6pv9-45" vertex="1">
          <mxGeometry y="26" width="100" height="26" as="geometry" />
        </mxCell>
        <mxCell id="XWS5cyPxn0b6OnyD6pv9-47" value="float freq." style="swimlane;fontStyle=0;align=center;verticalAlign=top;childLayout=stackLayout;horizontal=1;startSize=26;horizontalStack=0;resizeParent=1;resizeLast=0;collapsible=1;marginBottom=0;rounded=0;shadow=0;strokeWidth=1;fillColor=#fff2cc;gradientColor=#ffd966;strokeColor=#d6b656;" parent="WIyWlLk6GJQsqaUBKTNV-1" vertex="1">
          <mxGeometry x="430" y="180" width="100" height="52" as="geometry">
            <mxRectangle x="550" y="140" width="160" height="26" as="alternateBounds" />
          </mxGeometry>
        </mxCell>
        <mxCell id="XWS5cyPxn0b6OnyD6pv9-48" value="3m" style="text;align=center;verticalAlign=top;spacingLeft=4;spacingRight=4;overflow=hidden;rotatable=0;points=[[0,0.5],[1,0.5]];portConstraint=eastwest;" parent="XWS5cyPxn0b6OnyD6pv9-47" vertex="1">
          <mxGeometry y="26" width="100" height="26" as="geometry" />
        </mxCell>
        <mxCell id="XWS5cyPxn0b6OnyD6pv9-76" style="edgeStyle=orthogonalEdgeStyle;rounded=0;orthogonalLoop=1;jettySize=auto;html=1;entryX=0;entryY=0.5;entryDx=0;entryDy=0;strokeColor=#FF0000;" parent="WIyWlLk6GJQsqaUBKTNV-1" source="XWS5cyPxn0b6OnyD6pv9-53" target="XWS5cyPxn0b6OnyD6pv9-8" edge="1">
          <mxGeometry relative="1" as="geometry">
            <Array as="points">
              <mxPoint x="190" y="471" />
              <mxPoint x="190" y="330" />
            </Array>
          </mxGeometry>
        </mxCell>
        <mxCell id="CFxCFWsyVbdKsb3_6l-5-22" style="edgeStyle=orthogonalEdgeStyle;rounded=0;orthogonalLoop=1;jettySize=auto;html=1;entryX=0;entryY=0.5;entryDx=0;entryDy=0;fillColor=#e51400;strokeColor=#ff0000;" edge="1" parent="WIyWlLk6GJQsqaUBKTNV-1" source="XWS5cyPxn0b6OnyD6pv9-53" target="XWS5cyPxn0b6OnyD6pv9-9">
          <mxGeometry relative="1" as="geometry">
            <Array as="points">
              <mxPoint x="190" y="471" />
              <mxPoint x="190" y="452" />
            </Array>
          </mxGeometry>
        </mxCell>
        <mxCell id="XWS5cyPxn0b6OnyD6pv9-53" value="TermStructure" style="swimlane;fontStyle=0;align=center;verticalAlign=top;childLayout=stackLayout;horizontal=1;startSize=26;horizontalStack=0;resizeParent=1;resizeLast=0;collapsible=1;marginBottom=0;rounded=0;shadow=0;strokeWidth=1;fillColor=#e51400;strokeColor=#B20000;fontColor=#ffffff;" parent="WIyWlLk6GJQsqaUBKTNV-1" vertex="1">
          <mxGeometry x="20" y="445" width="130" height="52" as="geometry">
            <mxRectangle x="550" y="140" width="160" height="26" as="alternateBounds" />
          </mxGeometry>
        </mxCell>
        <mxCell id="XWS5cyPxn0b6OnyD6pv9-54" value="..." style="text;align=center;verticalAlign=top;spacingLeft=4;spacingRight=4;overflow=hidden;rotatable=0;points=[[0,0.5],[1,0.5]];portConstraint=eastwest;" parent="XWS5cyPxn0b6OnyD6pv9-53" vertex="1">
          <mxGeometry y="26" width="130" height="26" as="geometry" />
        </mxCell>
        <mxCell id="CFxCFWsyVbdKsb3_6l-5-10" style="edgeStyle=orthogonalEdgeStyle;rounded=0;orthogonalLoop=1;jettySize=auto;html=1;entryX=0;entryY=0.5;entryDx=0;entryDy=0;" edge="1" parent="WIyWlLk6GJQsqaUBKTNV-1" source="CFxCFWsyVbdKsb3_6l-5-0" target="XWS5cyPxn0b6OnyD6pv9-4">
          <mxGeometry relative="1" as="geometry" />
        </mxCell>
        <mxCell id="CFxCFWsyVbdKsb3_6l-5-0" value="volatility" style="swimlane;fontStyle=0;align=center;verticalAlign=top;childLayout=stackLayout;horizontal=1;startSize=26;horizontalStack=0;resizeParent=1;resizeLast=0;collapsible=1;marginBottom=0;rounded=0;shadow=0;strokeWidth=1;fillColor=#fff2cc;gradientColor=#ffd966;strokeColor=#d6b656;" vertex="1" parent="WIyWlLk6GJQsqaUBKTNV-1">
          <mxGeometry x="75" y="232" width="80" height="52" as="geometry">
            <mxRectangle x="550" y="140" width="160" height="26" as="alternateBounds" />
          </mxGeometry>
        </mxCell>
        <mxCell id="CFxCFWsyVbdKsb3_6l-5-1" value="0.2" style="text;align=center;verticalAlign=top;spacingLeft=4;spacingRight=4;overflow=hidden;rotatable=0;points=[[0,0.5],[1,0.5]];portConstraint=eastwest;" vertex="1" parent="CFxCFWsyVbdKsb3_6l-5-0">
          <mxGeometry y="26" width="80" height="26" as="geometry" />
        </mxCell>
        <mxCell id="CFxCFWsyVbdKsb3_6l-5-2" style="edgeStyle=orthogonalEdgeStyle;rounded=0;orthogonalLoop=1;jettySize=auto;html=1;entryX=1;entryY=0.5;entryDx=0;entryDy=0;" edge="1" parent="WIyWlLk6GJQsqaUBKTNV-1" source="XWS5cyPxn0b6OnyD6pv9-48" target="XWS5cyPxn0b6OnyD6pv9-2">
          <mxGeometry relative="1" as="geometry" />
        </mxCell>
        <mxCell id="CFxCFWsyVbdKsb3_6l-5-17" style="edgeStyle=orthogonalEdgeStyle;rounded=0;orthogonalLoop=1;jettySize=auto;html=1;entryX=0;entryY=0.5;entryDx=0;entryDy=0;fillColor=#6a00ff;strokeColor=#3700CC;" edge="1" parent="WIyWlLk6GJQsqaUBKTNV-1" source="CFxCFWsyVbdKsb3_6l-5-11" target="XWS5cyPxn0b6OnyD6pv9-8">
          <mxGeometry relative="1" as="geometry" />
        </mxCell>
        <mxCell id="CFxCFWsyVbdKsb3_6l-5-20" style="edgeStyle=orthogonalEdgeStyle;rounded=0;orthogonalLoop=1;jettySize=auto;html=1;entryX=0;entryY=0.5;entryDx=0;entryDy=0;fillColor=#6a00ff;strokeColor=#3700CC;" edge="1" parent="WIyWlLk6GJQsqaUBKTNV-1" source="CFxCFWsyVbdKsb3_6l-5-11" target="XWS5cyPxn0b6OnyD6pv9-9">
          <mxGeometry relative="1" as="geometry">
            <Array as="points">
              <mxPoint x="200" y="329" />
              <mxPoint x="200" y="452" />
            </Array>
          </mxGeometry>
        </mxCell>
        <mxCell id="CFxCFWsyVbdKsb3_6l-5-11" value="obs_date" style="swimlane;fontStyle=0;align=center;verticalAlign=top;childLayout=stackLayout;horizontal=1;startSize=26;horizontalStack=0;resizeParent=1;resizeLast=0;collapsible=1;marginBottom=0;rounded=0;shadow=0;strokeWidth=1;fillColor=#6a00ff;strokeColor=#3700CC;fontColor=#ffffff;" vertex="1" parent="WIyWlLk6GJQsqaUBKTNV-1">
          <mxGeometry x="20" y="303" width="130" height="52" as="geometry">
            <mxRectangle x="550" y="140" width="160" height="26" as="alternateBounds" />
          </mxGeometry>
        </mxCell>
        <mxCell id="CFxCFWsyVbdKsb3_6l-5-12" value="2024-01-01" style="text;align=center;verticalAlign=top;spacingLeft=4;spacingRight=4;overflow=hidden;rotatable=0;points=[[0,0.5],[1,0.5]];portConstraint=eastwest;" vertex="1" parent="CFxCFWsyVbdKsb3_6l-5-11">
          <mxGeometry y="26" width="130" height="26" as="geometry" />
        </mxCell>
        <mxCell id="CFxCFWsyVbdKsb3_6l-5-23" style="edgeStyle=orthogonalEdgeStyle;rounded=0;orthogonalLoop=1;jettySize=auto;html=1;entryX=0;entryY=0.5;entryDx=0;entryDy=0;fillColor=#008a00;strokeColor=#005700;" edge="1" parent="WIyWlLk6GJQsqaUBKTNV-1" source="CFxCFWsyVbdKsb3_6l-5-13" target="XWS5cyPxn0b6OnyD6pv9-9">
          <mxGeometry relative="1" as="geometry">
            <Array as="points">
              <mxPoint x="210" y="536" />
              <mxPoint x="210" y="452" />
            </Array>
          </mxGeometry>
        </mxCell>
        <mxCell id="CFxCFWsyVbdKsb3_6l-5-13" value="n_scenarios" style="swimlane;fontStyle=0;align=center;verticalAlign=top;childLayout=stackLayout;horizontal=1;startSize=26;horizontalStack=0;resizeParent=1;resizeLast=0;collapsible=1;marginBottom=0;rounded=0;shadow=0;strokeWidth=1;fillColor=#008a00;strokeColor=#005700;fontColor=#ffffff;" vertex="1" parent="WIyWlLk6GJQsqaUBKTNV-1">
          <mxGeometry x="20" y="510" width="130" height="52" as="geometry">
            <mxRectangle x="550" y="140" width="160" height="26" as="alternateBounds" />
          </mxGeometry>
        </mxCell>
        <mxCell id="CFxCFWsyVbdKsb3_6l-5-14" value="10000" style="text;align=center;verticalAlign=top;spacingLeft=4;spacingRight=4;overflow=hidden;rotatable=0;points=[[0,0.5],[1,0.5]];portConstraint=eastwest;" vertex="1" parent="CFxCFWsyVbdKsb3_6l-5-13">
          <mxGeometry y="26" width="130" height="26" as="geometry" />
        </mxCell>
        <mxCell id="CFxCFWsyVbdKsb3_6l-5-24" style="edgeStyle=orthogonalEdgeStyle;rounded=0;orthogonalLoop=1;jettySize=auto;html=1;entryX=0;entryY=0.5;entryDx=0;entryDy=0;fillColor=#e3c800;strokeColor=#B09500;" edge="1" parent="WIyWlLk6GJQsqaUBKTNV-1" source="CFxCFWsyVbdKsb3_6l-5-15" target="XWS5cyPxn0b6OnyD6pv9-9">
          <mxGeometry relative="1" as="geometry">
            <Array as="points">
              <mxPoint x="160" y="604" />
              <mxPoint x="160" y="452" />
            </Array>
          </mxGeometry>
        </mxCell>
        <mxCell id="CFxCFWsyVbdKsb3_6l-5-15" value="seed" style="swimlane;fontStyle=0;align=center;verticalAlign=top;childLayout=stackLayout;horizontal=1;startSize=26;horizontalStack=0;resizeParent=1;resizeLast=0;collapsible=1;marginBottom=0;rounded=0;shadow=0;strokeWidth=1;fillColor=#e3c800;strokeColor=#B09500;fontColor=#000000;" vertex="1" parent="WIyWlLk6GJQsqaUBKTNV-1">
          <mxGeometry x="20" y="578" width="130" height="52" as="geometry">
            <mxRectangle x="550" y="140" width="160" height="26" as="alternateBounds" />
          </mxGeometry>
        </mxCell>
        <mxCell id="CFxCFWsyVbdKsb3_6l-5-16" value="1" style="text;align=center;verticalAlign=top;spacingLeft=4;spacingRight=4;overflow=hidden;rotatable=0;points=[[0,0.5],[1,0.5]];portConstraint=eastwest;" vertex="1" parent="CFxCFWsyVbdKsb3_6l-5-15">
          <mxGeometry y="26" width="130" height="26" as="geometry" />
        </mxCell>
        <mxCell id="CFxCFWsyVbdKsb3_6l-5-26" style="edgeStyle=orthogonalEdgeStyle;rounded=0;orthogonalLoop=1;jettySize=auto;html=1;entryX=0;entryY=0.5;entryDx=0;entryDy=0;" edge="1" parent="WIyWlLk6GJQsqaUBKTNV-1" source="XWS5cyPxn0b6OnyD6pv9-8" target="XWS5cyPxn0b6OnyD6pv9-37">
          <mxGeometry relative="1" as="geometry" />
        </mxCell>
        <mxCell id="CFxCFWsyVbdKsb3_6l-5-27" style="edgeStyle=orthogonalEdgeStyle;rounded=0;orthogonalLoop=1;jettySize=auto;html=1;entryX=0;entryY=0.5;entryDx=0;entryDy=0;" edge="1" parent="WIyWlLk6GJQsqaUBKTNV-1" source="XWS5cyPxn0b6OnyD6pv9-9" target="XWS5cyPxn0b6OnyD6pv9-39">
          <mxGeometry relative="1" as="geometry" />
        </mxCell>
      </root>
    </mxGraphModel>
  </diagram>
</mxfile>
